<svg xmlns="http://www.w3.org/2000/svg" viewBox="0 0 24 24"><g fill='#FFFFFF'><path d="M19.4 5.9C17.7 4.2 15.5 3.2 13 3v9h2.5c.2-2.6 1.7-4.8 3.9-6.1zM20 18.3c1.1-1.5 1.8-3.3 1.9-5.3h-5.4c.2 2.3 1.6 4.3 3.5 5.3zM9.5 12H12V3c-2.5.2-4.7 1.2-6.4 2.9C7.8 7.2 9.3 9.4 9.5 12zM16.5 12H22c-.1-2-.8-3.8-1.9-5.3-2 1-3.4 3-3.6 5.3zM5.6 19.1c1.6 1.7 3.9 2.8 6.4 2.9v-9H9.5c-.2 2.6-1.7 4.8-3.9 6.1zM15.5 13H13v9c2.5-.1 4.7-1.2 6.4-2.9-2.2-1.3-3.7-3.5-3.9-6.1zM5 6.7C3.8 8.2 3.1 10 3 12h5.4C8.3 9.7 6.9 7.7 5 6.7zM8.5 13H3c.1 2 .8 3.8 1.9 5.3 2-1 3.4-3 3.6-5.3z"></path></g></svg>